<svg width="240" height="280" viewBox="0 0 240 280" fill="none" xmlns="http://www.w3.org/2000/svg">
  <path d="M120 8L214 40V132C214 196.4 173.2 239.2 120 270C66.8 239.2 26 196.4 26 132V40L120 8Z" fill="#0B1722"/>
  <path d="M120 24L198 50.8V129.8C198 182 165.4 219.9 120 247C74.6 219.9 42 182 42 129.8V50.8L120 24Z" fill="#F7F0E3"/>
  <path d="M120 35L188 58.5V126.7C188 173.2 159.1 206.9 120 231C80.9 206.9 52 173.2 52 126.7V58.5L120 35Z" fill="#0E2233"/>
  <path d="M48 169L193 71V112.4L74.8 191.6C65.1 182.8 56.1 173.5 48 169Z" fill="#F0AE2C"/>
  <path d="M121 54L167.8 69.6V122.7C167.8 160.3 147 188.7 121 206.1C95 188.7 74.2 160.3 74.2 122.7V69.6L121 54Z" fill="#173A57"/>
  <path d="M121 66L157 77.8V121.6C157 150.3 141.3 173 121 187.4C100.7 173 85 150.3 85 121.6V77.8L121 66Z" fill="#F7F0E3"/>
  <path d="M120.8 92L126.8 104.6L140.6 106.5L130.5 116.4L132.9 130.3L120.8 123.7L108.7 130.3L111.1 116.4L101 106.5L114.8 104.6L120.8 92Z" fill="#0E2233"/>
  <path d="M103.7 155.1H95.7V136.6H103.7V155.1ZM108.9 145.9C108.9 139.7 113.4 135.8 120.3 135.8C126.4 135.8 130.4 138.8 131.6 143.5L124.7 145.2C124.1 143.4 122.5 142.2 120.1 142.2C116.9 142.2 114.8 144.6 114.8 145.9C114.8 147.2 116.9 149.6 120.1 149.6C122.5 149.6 124.1 148.4 124.7 146.6L131.6 148.3C130.4 153 126.4 156 120.3 156C113.4 156 108.9 152.1 108.9 145.9ZM145.2 155.1H137.2V136.6H145.2V155.1Z" fill="#0E2233"/>
  <path d="M84 214.4H156.1" stroke="#F7F0E3" stroke-width="7" stroke-linecap="round"/>
  <path d="M79 214.4H161.2" stroke="#F0AE2C" stroke-width="3" stroke-linecap="round"/>
  <circle cx="120.2" cy="214.4" r="7.5" fill="#0B1722" stroke="#F7F0E3" stroke-width="3"/>
</svg>
